<mxfile host="app.diagrams.net" modified="2023-10-30T15:11:13.021Z" agent="Mozilla/5.0 (Windows NT 10.0; Win64; x64) AppleWebKit/537.36 (KHTML, like Gecko) Chrome/116.0.0.0 Safari/537.36 OPR/102.0.0.0" etag="hbLgxlrWQPHWS-TwfYGK" version="22.0.8" type="device">
  <diagram name="Page-1" id="6TqGO6Cx9csWBLCSUMfb">
    <mxGraphModel dx="1009" dy="550" grid="1" gridSize="10" guides="1" tooltips="1" connect="1" arrows="1" fold="1" page="1" pageScale="1" pageWidth="850" pageHeight="1100" math="0" shadow="0">
      <root>
        <mxCell id="0" />
        <mxCell id="1" parent="0" />
        <mxCell id="xIP1HStQXK3pUfu_ulNB-23" value="Train Booking System" style="rounded=0;whiteSpace=wrap;html=1;verticalAlign=top;" vertex="1" parent="1">
          <mxGeometry x="210" y="130" width="390" height="250" as="geometry" />
        </mxCell>
        <mxCell id="xIP1HStQXK3pUfu_ulNB-14" style="edgeStyle=orthogonalEdgeStyle;rounded=0;orthogonalLoop=1;jettySize=auto;html=1;" edge="1" parent="1" source="xIP1HStQXK3pUfu_ulNB-7" target="xIP1HStQXK3pUfu_ulNB-11">
          <mxGeometry relative="1" as="geometry" />
        </mxCell>
        <mxCell id="xIP1HStQXK3pUfu_ulNB-16" style="edgeStyle=orthogonalEdgeStyle;rounded=0;orthogonalLoop=1;jettySize=auto;html=1;entryX=0;entryY=0.5;entryDx=0;entryDy=0;" edge="1" parent="1" source="xIP1HStQXK3pUfu_ulNB-7" target="xIP1HStQXK3pUfu_ulNB-15">
          <mxGeometry relative="1" as="geometry" />
        </mxCell>
        <mxCell id="xIP1HStQXK3pUfu_ulNB-18" style="edgeStyle=orthogonalEdgeStyle;rounded=0;orthogonalLoop=1;jettySize=auto;html=1;entryX=0;entryY=0.5;entryDx=0;entryDy=0;" edge="1" parent="1" source="xIP1HStQXK3pUfu_ulNB-7" target="xIP1HStQXK3pUfu_ulNB-17">
          <mxGeometry relative="1" as="geometry" />
        </mxCell>
        <mxCell id="xIP1HStQXK3pUfu_ulNB-7" value="Customer" style="shape=umlActor;verticalLabelPosition=bottom;verticalAlign=top;html=1;fontStyle=0" vertex="1" parent="1">
          <mxGeometry x="160" y="215" width="30" height="60" as="geometry" />
        </mxCell>
        <mxCell id="xIP1HStQXK3pUfu_ulNB-20" style="edgeStyle=orthogonalEdgeStyle;rounded=0;orthogonalLoop=1;jettySize=auto;html=1;" edge="1" parent="1" source="xIP1HStQXK3pUfu_ulNB-8" target="xIP1HStQXK3pUfu_ulNB-19">
          <mxGeometry relative="1" as="geometry" />
        </mxCell>
        <mxCell id="xIP1HStQXK3pUfu_ulNB-8" value="Admin&lt;br&gt;" style="shape=umlActor;verticalLabelPosition=bottom;verticalAlign=top;html=1;" vertex="1" parent="1">
          <mxGeometry x="630" y="215" width="30" height="60" as="geometry" />
        </mxCell>
        <mxCell id="xIP1HStQXK3pUfu_ulNB-10" style="edgeStyle=orthogonalEdgeStyle;rounded=0;orthogonalLoop=1;jettySize=auto;html=1;exitX=0.5;exitY=0.5;exitDx=0;exitDy=0;exitPerimeter=0;entryX=0.587;entryY=0.687;entryDx=0;entryDy=0;entryPerimeter=0;" edge="1" parent="1" source="xIP1HStQXK3pUfu_ulNB-8" target="xIP1HStQXK3pUfu_ulNB-8">
          <mxGeometry relative="1" as="geometry" />
        </mxCell>
        <mxCell id="xIP1HStQXK3pUfu_ulNB-11" value="Search Connection" style="ellipse;whiteSpace=wrap;html=1;" vertex="1" parent="1">
          <mxGeometry x="260" y="170" width="120" height="50" as="geometry" />
        </mxCell>
        <mxCell id="xIP1HStQXK3pUfu_ulNB-15" value="Choose Route" style="ellipse;whiteSpace=wrap;html=1;" vertex="1" parent="1">
          <mxGeometry x="285" y="220" width="140" height="70" as="geometry" />
        </mxCell>
        <mxCell id="xIP1HStQXK3pUfu_ulNB-17" value="Buy Ticket" style="ellipse;whiteSpace=wrap;html=1;" vertex="1" parent="1">
          <mxGeometry x="250" y="290" width="140" height="70" as="geometry" />
        </mxCell>
        <mxCell id="xIP1HStQXK3pUfu_ulNB-19" value="Change Discount" style="ellipse;whiteSpace=wrap;html=1;" vertex="1" parent="1">
          <mxGeometry x="430" y="220" width="140" height="70" as="geometry" />
        </mxCell>
      </root>
    </mxGraphModel>
  </diagram>
</mxfile>
